<svg xmlns="http://www.w3.org/2000/svg" xmlns:xlink="http://www.w3.org/1999/xlink" width="1093" height="606" viewBox="0 0 1093 606">
  <defs>
    <clipPath id="clip-Karot_logo_V2">
      <rect width="1093" height="606"/>
    </clipPath>
  </defs>
  <g id="Karot_logo_V2" data-name="Karot logo V2" clip-path="url(#clip-Karot_logo_V2)">
    <rect width="1093" height="606" fill="rgba(255,255,255,0)"/>
    <g id="Group_1" data-name="Group 1" transform="translate(-904 -772)">
      <path id="Path_1" data-name="Path 1" d="M179.465,5.72q-40.04,0-72.572-18.233a134.264,134.264,0,0,1-51.48-51.123q-18.948-32.89-18.948-76.5,0-46.475,20.02-79.723a132.733,132.733,0,0,1,54.34-50.765q34.32-17.517,77.935-17.517,37.18,0,70.428,22.165t47.547,55.77L301.73-200.2l4.29-79.365h22.607V0H302.445V-86.515l7.15,12.87q-5.005,14.3-17.16,28.242a150.74,150.74,0,0,1-29.672,25.74,152.237,152.237,0,0,1-38.61,18.59A144.9,144.9,0,0,1,179.465,5.72Zm7.15-25.383c20.973,0,39.921-7.627,56.842-16.445A109.311,109.311,0,0,0,284.57-72.93q15.73-23.6,17.875-54.34v-40.04a111.225,111.225,0,0,0-22.523-47.19,123.109,123.109,0,0,0-41.112-32.89c-16.207-8.1-33.128-18.59-52.195-18.59-20.973,0-48.06,5.593-65.7,15.365s-33.023,26.113-43.51,43.75S62.084-163.973,62.084-140.14c0,21.927,4.838,45.994,15.324,63.869s25.635,34.476,43.51,45.2S165.642-19.663,186.615-19.663Zm198.77-259.9,3.575,85.8-4.29-10.725a111.176,111.176,0,0,1,29.315-44.33,145.834,145.834,0,0,1,44.688-28.6q24.668-10.01,47.548-10.01v23.9c-21.45,0-42.3,13.758-59.7,23.291a112.557,112.557,0,0,0-41.47,38.252q-15.372,23.953-15.372,53.982V0H363.654V-279.565Zm69.355,138q0-40.755,19.663-74.36A145.541,145.541,0,0,1,528.027-269.2q33.962-19.663,76.148-19.663,42.9,0,76.505,19.663a143.621,143.621,0,0,1,52.91,53.268Q752.9-182.325,752.9-141.57T733.59-67.21a142.831,142.831,0,0,1-53.267,53.267Q646.36,5.72,604.175,5.72q-42.9,0-76.505-18.948a141.735,141.735,0,0,1-53.267-52.2Q454.74-98.67,454.74-141.57Zm25.44,0c0,21.927,4.088,42.542,14.336,60.417S520.992-46.2,538.391-35.717s44.334,17.7,65.784,17.7,46.095-7.213,63.493-17.7S699.447-63.277,709.7-81.152A121.237,121.237,0,0,0,726-141.57a121.237,121.237,0,0,0-16.3-60.418c-10.248-17.875-28.2-36.107-45.6-46.832s-39.19-14.711-60.64-14.711c-21.927,0-45.058,3.51-62.456,14.711s-36.478,28.719-46.488,46.832S480.18-162.067,480.18-141.57ZM780.162-402.545,804.43-381.18v109.6h90.035v22.764H804.43V0H780.162V-248.82H714.285v-22.764h65.877Z" transform="translate(1086 1333)"/>
      <g id="k" transform="translate(274 516)">
        <path id="Shape_6" data-name="Shape 6" d="M886.274,824.2l-18.547,13.6-110-150,18.547-13.6Z"/>
        <rect id="Shape_4" data-name="Shape 4" width="24" height="540" transform="translate(668 280)"/>
        <path id="Shape_5" data-name="Shape 5" d="M852.19,535.288l17.621,11.424-177,273L675.19,808.288Z"/>
      </g>
    </g>
  </g>
</svg>
